<mxfile host="app.diagrams.net" modified="2024-04-04T11:04:25.117Z" agent="Mozilla/5.0 (X11; Linux x86_64) AppleWebKit/537.36 (KHTML, like Gecko) Chrome/120.0.0.0 Safari/537.36" etag="3mknRRp5ikDE-TvEfXOm" version="24.0.7" type="device">
  <diagram name="Página-1" id="3Wb-UexeQrzzh92BTAoo">
    <mxGraphModel dx="993" dy="955" grid="1" gridSize="10" guides="1" tooltips="1" connect="1" arrows="1" fold="1" page="1" pageScale="1" pageWidth="827" pageHeight="1169" math="0" shadow="0">
      <root>
        <mxCell id="0" />
        <mxCell id="1" parent="0" />
        <mxCell id="co_KkxCk6RvIBu7AYui0-1" value="Guest&lt;div&gt;&lt;br&gt;&lt;/div&gt;" style="shape=umlActor;verticalLabelPosition=bottom;verticalAlign=top;html=1;outlineConnect=0;fillColor=#ffe6cc;strokeColor=#d79b00;" vertex="1" parent="1">
          <mxGeometry y="250" width="30" height="60" as="geometry" />
        </mxCell>
        <mxCell id="co_KkxCk6RvIBu7AYui0-3" value="Contactar admin" style="ellipse;whiteSpace=wrap;html=1;" vertex="1" parent="1">
          <mxGeometry x="30" y="90" width="190" height="40" as="geometry" />
        </mxCell>
        <mxCell id="co_KkxCk6RvIBu7AYui0-4" value="&lt;div&gt;Admin&lt;/div&gt;" style="shape=umlActor;verticalLabelPosition=bottom;verticalAlign=top;html=1;outlineConnect=0;fillColor=#ffe6cc;strokeColor=#d79b00;" vertex="1" parent="1">
          <mxGeometry x="120" y="730" width="30" height="60" as="geometry" />
        </mxCell>
        <mxCell id="co_KkxCk6RvIBu7AYui0-5" value="&lt;div&gt;User-Client&lt;/div&gt;" style="shape=umlActor;verticalLabelPosition=bottom;verticalAlign=top;html=1;outlineConnect=0;fillColor=#ffe6cc;strokeColor=#d79b00;" vertex="1" parent="1">
          <mxGeometry x="480" y="320" width="30" height="60" as="geometry" />
        </mxCell>
        <mxCell id="co_KkxCk6RvIBu7AYui0-6" value="&lt;div&gt;User-Employee&lt;/div&gt;" style="shape=umlActor;verticalLabelPosition=bottom;verticalAlign=top;html=1;outlineConnect=0;fillColor=#ffe6cc;strokeColor=#d79b00;" vertex="1" parent="1">
          <mxGeometry x="100" y="524" width="30" height="60" as="geometry" />
        </mxCell>
        <mxCell id="co_KkxCk6RvIBu7AYui0-17" value="Visitar área pública" style="ellipse;whiteSpace=wrap;html=1;" vertex="1" parent="1">
          <mxGeometry x="80" y="140" width="190" height="40" as="geometry" />
        </mxCell>
        <mxCell id="co_KkxCk6RvIBu7AYui0-18" value="Login" style="ellipse;whiteSpace=wrap;html=1;" vertex="1" parent="1">
          <mxGeometry x="110" y="200" width="190" height="40" as="geometry" />
        </mxCell>
        <mxCell id="co_KkxCk6RvIBu7AYui0-19" value="Register" style="ellipse;whiteSpace=wrap;html=1;" vertex="1" parent="1">
          <mxGeometry x="130" y="250" width="190" height="40" as="geometry" />
        </mxCell>
        <mxCell id="co_KkxCk6RvIBu7AYui0-20" value="Añadir al carrito" style="ellipse;whiteSpace=wrap;html=1;" vertex="1" parent="1">
          <mxGeometry x="140" y="300" width="190" height="40" as="geometry" />
        </mxCell>
        <mxCell id="co_KkxCk6RvIBu7AYui0-21" value="Ver productos" style="ellipse;whiteSpace=wrap;html=1;" vertex="1" parent="1">
          <mxGeometry x="90" y="350" width="170" height="40" as="geometry" />
        </mxCell>
        <mxCell id="co_KkxCk6RvIBu7AYui0-22" value="Consultar estados de pedido" style="ellipse;whiteSpace=wrap;html=1;" vertex="1" parent="1">
          <mxGeometry x="70" y="400" width="190" height="40" as="geometry" />
        </mxCell>
        <mxCell id="co_KkxCk6RvIBu7AYui0-30" value="" style="endArrow=classic;html=1;rounded=0;entryX=0.185;entryY=0.965;entryDx=0;entryDy=0;entryPerimeter=0;" edge="1" parent="1" source="co_KkxCk6RvIBu7AYui0-1" target="co_KkxCk6RvIBu7AYui0-3">
          <mxGeometry width="50" height="50" relative="1" as="geometry">
            <mxPoint x="20" y="220" as="sourcePoint" />
            <mxPoint x="50" y="190" as="targetPoint" />
          </mxGeometry>
        </mxCell>
        <mxCell id="co_KkxCk6RvIBu7AYui0-31" value="" style="endArrow=classic;html=1;rounded=0;entryX=0.098;entryY=0.813;entryDx=0;entryDy=0;entryPerimeter=0;" edge="1" parent="1" source="co_KkxCk6RvIBu7AYui0-1" target="co_KkxCk6RvIBu7AYui0-17">
          <mxGeometry width="50" height="50" relative="1" as="geometry">
            <mxPoint x="50" y="260" as="sourcePoint" />
            <mxPoint x="100" y="210" as="targetPoint" />
          </mxGeometry>
        </mxCell>
        <mxCell id="co_KkxCk6RvIBu7AYui0-33" value="" style="endArrow=classic;html=1;rounded=0;entryX=0;entryY=0.5;entryDx=0;entryDy=0;" edge="1" parent="1" source="co_KkxCk6RvIBu7AYui0-1" target="co_KkxCk6RvIBu7AYui0-19">
          <mxGeometry width="50" height="50" relative="1" as="geometry">
            <mxPoint x="50" y="320" as="sourcePoint" />
            <mxPoint x="100" y="270" as="targetPoint" />
          </mxGeometry>
        </mxCell>
        <mxCell id="co_KkxCk6RvIBu7AYui0-34" value="" style="endArrow=classic;html=1;rounded=0;" edge="1" parent="1" source="co_KkxCk6RvIBu7AYui0-1" target="co_KkxCk6RvIBu7AYui0-18">
          <mxGeometry width="50" height="50" relative="1" as="geometry">
            <mxPoint x="60" y="280" as="sourcePoint" />
            <mxPoint x="110" y="230" as="targetPoint" />
          </mxGeometry>
        </mxCell>
        <mxCell id="co_KkxCk6RvIBu7AYui0-35" value="" style="endArrow=classic;html=1;rounded=0;entryX=0;entryY=0.5;entryDx=0;entryDy=0;" edge="1" parent="1" source="co_KkxCk6RvIBu7AYui0-1" target="co_KkxCk6RvIBu7AYui0-20">
          <mxGeometry width="50" height="50" relative="1" as="geometry">
            <mxPoint x="30" y="260" as="sourcePoint" />
            <mxPoint x="90" y="270" as="targetPoint" />
          </mxGeometry>
        </mxCell>
        <mxCell id="co_KkxCk6RvIBu7AYui0-36" value="" style="endArrow=classic;html=1;rounded=0;entryX=0;entryY=0.5;entryDx=0;entryDy=0;" edge="1" parent="1" source="co_KkxCk6RvIBu7AYui0-1" target="co_KkxCk6RvIBu7AYui0-21">
          <mxGeometry width="50" height="50" relative="1" as="geometry">
            <mxPoint x="30" y="260" as="sourcePoint" />
            <mxPoint x="190" y="270" as="targetPoint" />
          </mxGeometry>
        </mxCell>
        <mxCell id="co_KkxCk6RvIBu7AYui0-37" value="" style="endArrow=classic;html=1;rounded=0;entryX=0;entryY=0.5;entryDx=0;entryDy=0;" edge="1" parent="1" source="co_KkxCk6RvIBu7AYui0-1" target="co_KkxCk6RvIBu7AYui0-22">
          <mxGeometry width="50" height="50" relative="1" as="geometry">
            <mxPoint x="40" y="350" as="sourcePoint" />
            <mxPoint x="180" y="390" as="targetPoint" />
          </mxGeometry>
        </mxCell>
        <mxCell id="co_KkxCk6RvIBu7AYui0-40" value="" style="endArrow=classic;html=1;rounded=0;entryX=1;entryY=0.5;entryDx=0;entryDy=0;" edge="1" parent="1" source="co_KkxCk6RvIBu7AYui0-5" target="co_KkxCk6RvIBu7AYui0-20">
          <mxGeometry width="50" height="50" relative="1" as="geometry">
            <mxPoint x="380" y="320" as="sourcePoint" />
            <mxPoint x="430" y="270" as="targetPoint" />
          </mxGeometry>
        </mxCell>
        <mxCell id="co_KkxCk6RvIBu7AYui0-41" value="" style="endArrow=classic;html=1;rounded=0;entryX=1;entryY=0.5;entryDx=0;entryDy=0;" edge="1" parent="1" source="co_KkxCk6RvIBu7AYui0-5" target="co_KkxCk6RvIBu7AYui0-21">
          <mxGeometry width="50" height="50" relative="1" as="geometry">
            <mxPoint x="490" y="357" as="sourcePoint" />
            <mxPoint x="340" y="330" as="targetPoint" />
          </mxGeometry>
        </mxCell>
        <mxCell id="co_KkxCk6RvIBu7AYui0-42" value="" style="endArrow=classic;html=1;rounded=0;entryX=1;entryY=0.5;entryDx=0;entryDy=0;" edge="1" parent="1" source="co_KkxCk6RvIBu7AYui0-5" target="co_KkxCk6RvIBu7AYui0-22">
          <mxGeometry width="50" height="50" relative="1" as="geometry">
            <mxPoint x="500" y="367" as="sourcePoint" />
            <mxPoint x="350" y="340" as="targetPoint" />
          </mxGeometry>
        </mxCell>
        <mxCell id="co_KkxCk6RvIBu7AYui0-43" value="Valorar" style="ellipse;whiteSpace=wrap;html=1;" vertex="1" parent="1">
          <mxGeometry x="210" y="460" width="190" height="40" as="geometry" />
        </mxCell>
        <mxCell id="co_KkxCk6RvIBu7AYui0-44" value="Visitar área privada" style="ellipse;whiteSpace=wrap;html=1;" vertex="1" parent="1">
          <mxGeometry x="440" y="574" width="190" height="40" as="geometry" />
        </mxCell>
        <mxCell id="co_KkxCk6RvIBu7AYui0-45" value="Realizar pedidos" style="ellipse;whiteSpace=wrap;html=1;" vertex="1" parent="1">
          <mxGeometry x="270" y="500" width="190" height="40" as="geometry" />
        </mxCell>
        <mxCell id="co_KkxCk6RvIBu7AYui0-46" value="Ver promociones" style="ellipse;whiteSpace=wrap;html=1;" vertex="1" parent="1">
          <mxGeometry x="350" y="534" width="190" height="40" as="geometry" />
        </mxCell>
        <mxCell id="co_KkxCk6RvIBu7AYui0-48" value="" style="endArrow=classic;html=1;rounded=0;entryX=0.5;entryY=0;entryDx=0;entryDy=0;" edge="1" parent="1" source="co_KkxCk6RvIBu7AYui0-5" target="co_KkxCk6RvIBu7AYui0-43">
          <mxGeometry width="50" height="50" relative="1" as="geometry">
            <mxPoint x="490" y="364" as="sourcePoint" />
            <mxPoint x="270" y="430" as="targetPoint" />
          </mxGeometry>
        </mxCell>
        <mxCell id="co_KkxCk6RvIBu7AYui0-49" value="" style="endArrow=classic;html=1;rounded=0;entryX=0.5;entryY=0;entryDx=0;entryDy=0;" edge="1" parent="1" source="co_KkxCk6RvIBu7AYui0-5" target="co_KkxCk6RvIBu7AYui0-45">
          <mxGeometry width="50" height="50" relative="1" as="geometry">
            <mxPoint x="490" y="367" as="sourcePoint" />
            <mxPoint x="245" y="480" as="targetPoint" />
          </mxGeometry>
        </mxCell>
        <mxCell id="co_KkxCk6RvIBu7AYui0-50" value="" style="endArrow=classic;html=1;rounded=0;entryX=0.541;entryY=-0.029;entryDx=0;entryDy=0;entryPerimeter=0;" edge="1" parent="1" source="co_KkxCk6RvIBu7AYui0-5" target="co_KkxCk6RvIBu7AYui0-46">
          <mxGeometry width="50" height="50" relative="1" as="geometry">
            <mxPoint x="500" y="377" as="sourcePoint" />
            <mxPoint x="255" y="490" as="targetPoint" />
          </mxGeometry>
        </mxCell>
        <mxCell id="co_KkxCk6RvIBu7AYui0-51" value="" style="endArrow=classic;html=1;rounded=0;entryX=0.43;entryY=-0.061;entryDx=0;entryDy=0;entryPerimeter=0;" edge="1" parent="1" source="co_KkxCk6RvIBu7AYui0-5" target="co_KkxCk6RvIBu7AYui0-44">
          <mxGeometry width="50" height="50" relative="1" as="geometry">
            <mxPoint x="510" y="387" as="sourcePoint" />
            <mxPoint x="265" y="500" as="targetPoint" />
          </mxGeometry>
        </mxCell>
        <mxCell id="co_KkxCk6RvIBu7AYui0-52" value="" style="endArrow=classic;html=1;rounded=0;entryX=0.222;entryY=0.913;entryDx=0;entryDy=0;entryPerimeter=0;" edge="1" parent="1" source="co_KkxCk6RvIBu7AYui0-6" target="co_KkxCk6RvIBu7AYui0-43">
          <mxGeometry width="50" height="50" relative="1" as="geometry">
            <mxPoint x="490" y="373" as="sourcePoint" />
            <mxPoint x="329" y="510" as="targetPoint" />
          </mxGeometry>
        </mxCell>
        <mxCell id="co_KkxCk6RvIBu7AYui0-53" value="" style="endArrow=classic;html=1;rounded=0;entryX=0;entryY=0.5;entryDx=0;entryDy=0;" edge="1" parent="1" source="co_KkxCk6RvIBu7AYui0-6" target="co_KkxCk6RvIBu7AYui0-45">
          <mxGeometry width="50" height="50" relative="1" as="geometry">
            <mxPoint x="140" y="553" as="sourcePoint" />
            <mxPoint x="192" y="517" as="targetPoint" />
          </mxGeometry>
        </mxCell>
        <mxCell id="co_KkxCk6RvIBu7AYui0-54" value="" style="endArrow=classic;html=1;rounded=0;entryX=0;entryY=0.5;entryDx=0;entryDy=0;" edge="1" parent="1" source="co_KkxCk6RvIBu7AYui0-6" target="co_KkxCk6RvIBu7AYui0-46">
          <mxGeometry width="50" height="50" relative="1" as="geometry">
            <mxPoint x="150" y="563" as="sourcePoint" />
            <mxPoint x="202" y="527" as="targetPoint" />
          </mxGeometry>
        </mxCell>
        <mxCell id="co_KkxCk6RvIBu7AYui0-55" value="" style="endArrow=classic;html=1;rounded=0;entryX=0.087;entryY=0.808;entryDx=0;entryDy=0;entryPerimeter=0;" edge="1" parent="1" source="co_KkxCk6RvIBu7AYui0-6" target="co_KkxCk6RvIBu7AYui0-44">
          <mxGeometry width="50" height="50" relative="1" as="geometry">
            <mxPoint x="160" y="573" as="sourcePoint" />
            <mxPoint x="212" y="537" as="targetPoint" />
          </mxGeometry>
        </mxCell>
        <mxCell id="co_KkxCk6RvIBu7AYui0-56" value="Añadir, modificar, eliminar y ver pedidos" style="ellipse;whiteSpace=wrap;html=1;" vertex="1" parent="1">
          <mxGeometry x="180" y="610" width="206" height="50" as="geometry" />
        </mxCell>
        <mxCell id="co_KkxCk6RvIBu7AYui0-57" value="Añadir, modificar, eliminar y ver productos" style="ellipse;whiteSpace=wrap;html=1;" vertex="1" parent="1">
          <mxGeometry x="280" y="680" width="206" height="50" as="geometry" />
        </mxCell>
        <mxCell id="co_KkxCk6RvIBu7AYui0-59" value="Añadir, modificar, eliminar y ver usuarios" style="ellipse;whiteSpace=wrap;html=1;" vertex="1" parent="1">
          <mxGeometry x="392" y="750" width="206" height="50" as="geometry" />
        </mxCell>
        <mxCell id="co_KkxCk6RvIBu7AYui0-60" value="" style="endArrow=classic;html=1;rounded=0;entryX=0.5;entryY=0;entryDx=0;entryDy=0;" edge="1" parent="1" source="co_KkxCk6RvIBu7AYui0-6" target="co_KkxCk6RvIBu7AYui0-56">
          <mxGeometry width="50" height="50" relative="1" as="geometry">
            <mxPoint x="140" y="565" as="sourcePoint" />
            <mxPoint x="477" y="592" as="targetPoint" />
          </mxGeometry>
        </mxCell>
        <mxCell id="co_KkxCk6RvIBu7AYui0-61" value="" style="endArrow=classic;html=1;rounded=0;entryX=0;entryY=0.5;entryDx=0;entryDy=0;" edge="1" parent="1" source="co_KkxCk6RvIBu7AYui0-4" target="co_KkxCk6RvIBu7AYui0-57">
          <mxGeometry width="50" height="50" relative="1" as="geometry">
            <mxPoint x="140" y="569" as="sourcePoint" />
            <mxPoint x="293" y="620" as="targetPoint" />
          </mxGeometry>
        </mxCell>
        <mxCell id="co_KkxCk6RvIBu7AYui0-62" value="" style="endArrow=classic;html=1;rounded=0;entryX=0.323;entryY=1.004;entryDx=0;entryDy=0;entryPerimeter=0;" edge="1" parent="1" source="co_KkxCk6RvIBu7AYui0-4" target="co_KkxCk6RvIBu7AYui0-56">
          <mxGeometry width="50" height="50" relative="1" as="geometry">
            <mxPoint x="150" y="579" as="sourcePoint" />
            <mxPoint x="303" y="630" as="targetPoint" />
          </mxGeometry>
        </mxCell>
        <mxCell id="co_KkxCk6RvIBu7AYui0-63" value="" style="endArrow=classic;html=1;rounded=0;entryX=0;entryY=0.5;entryDx=0;entryDy=0;" edge="1" parent="1" source="co_KkxCk6RvIBu7AYui0-4" target="co_KkxCk6RvIBu7AYui0-59">
          <mxGeometry width="50" height="50" relative="1" as="geometry">
            <mxPoint x="160" y="589" as="sourcePoint" />
            <mxPoint x="313" y="640" as="targetPoint" />
          </mxGeometry>
        </mxCell>
      </root>
    </mxGraphModel>
  </diagram>
</mxfile>
